<svg xmlns="http://www.w3.org/2000/svg" viewBox="0 0 448 512"><path fill="#fff" d="M399 374c96-122 17-233 17-233 45 86-41 171-41 171 105-171-60-271-60-271 97 73-10 191-10 191 86 158-69 230-69 230s0-17-2-86c4 5 35 36 35 36l-24-47 63-9-63-9 20-55-31 46c-2-88-8-305-8-307v-2 1-1 2c0 1-6 219-8 307l-31-46 20 56-63 9 63 9-24 47 35-36c-2 69-2 86-2 86s-154-72-69-230c0 0-107-118-10-191 0 0-165 100-60 272 0 0-87-85-41-170 0 0-79 111 17 233 0 0-26-16-49-78 0 0 17 183 222 186h4c205-2 222-186 222-186-24 62-50 78-50 78z"/></svg>