<svg xmlns="http://www.w3.org/2000/svg" viewBox="0 0 384 512"><path fill="#fff" d="M384 144c0-44-36-80-80-80s-80 36-80 80c0 36 24 67 58 77-1 16-4 29-11 37-15 19-49 22-85 26-28 3-57 5-81 17v-144c33-10 56-40 56-76 0-44-36-80-80-80S0 36 0 80c0 36 24 66 56 76v199C24 366 0 396 0 432c0 44 36 80 80 80s80-36 80-80c0-34-21-63-51-75 3-5 8-10 15-13 16-8 40-10 66-13 42-4 90-8 118-43 14-17 21-40 22-68 32-11 54-41 54-76zM80 64c9 0 16 7 16 16s-7 16-16 16-16-7-16-16 7-16 16-16zm0 384c-9 0-16-7-16-16s7-16 16-16 16 7 16 16-7 16-16 16zm224-320c9 0 16 7 16 16s-7 16-16 16-16-7-16-16 7-16 16-16z"/></svg>