<svg xmlns="http://www.w3.org/2000/svg" width="74" height="80" viewBox="0 0 74 80"><path fill="#fff" d="M42 17C51 16 59 11 68 15L68 73C56 67 44 79 32 73L32 64C32 64 32 63 32 63 23 64 14 69 5 65L5 7C17 12 30 1 42 7L42 17ZM48 48C50 48 51 48 52 48 56 46 58 43 58 39L58 31C58 27 57 24 51 25 48 26 45 27 42 27L42 65C44 64 46 64 48 63L48 48ZM48 42L48 32C49 31 49 31 50 31 51 31 51 32 51 33 51 35 51 37 51 39 51 41 51 42 50 42 49 42 49 42 48 42ZM22 55L22 39C22 39 23 38 23 38 25 38 25 38 25 40L25 51C25 53 25 54 26 54 28 53 30 53 32 53L32 53C32 52 32 52 32 50L32 37C32 34 30 33 29 33 30 32 32 31 32 27L32 21C32 17 30 15 26 16 22 17 19 18 15 18L15 56C17 56 20 55 22 55ZM22 32L22 23C22 23 23 23 23 23 25 22 25 23 25 24L25 29C25 31 24 32 23 32 23 32 22 32 22 32Z"/></svg>