<svg xmlns="http://www.w3.org/2000/svg" viewBox="0 0 496 512"><path fill="#fff" d="M248 8C111 8 0 119 0 256s111 248 248 248 248-111 248-248S385 8 248 8zm101 365c-4 0-7-1-11-4-62-38-135-39-207-24-4 1-9 3-12 3-10 0-16-8-16-16 0-10 6-15 14-17 82-18 166-16 237 26 6 4 10 7 10 17s-7 15-15 15zm27-66c-5 0-9-2-12-4-62-37-156-52-239-29-5 1-7 3-12 3-11 0-19-9-19-19s5-18 16-21c28-8 56-14 98-14 65 0 128 16 177 46 8 5 11 11 11 20 0 11-8 20-19 20zm31-76c-5 0-8-1-13-4-71-42-198-53-281-30-4 1-8 3-13 3-13 0-23-10-23-24 0-14 8-21 17-24 35-10 75-15 118-15 73 0 150 15 205 48 8 5 13 11 13 23 0 14-11 23-23 23z"/></svg>